<svg width="532" height="74" viewBox="0 0 532 74" fill="none" xmlns="http://www.w3.org/2000/svg">
<g clip-path="url(#clip0_10826_19644)">
<g clip-path="url(#clip1_10826_19644)">
<g clip-path="url(#clip2_10826_19644)">
<path d="M216.829 34.021C216.829 34.021 215.962 35.4224 215.195 36.3266C215.144 36.387 215.093 36.4448 215.043 36.5002C214.951 36.6005 214.847 36.7088 214.739 36.8184C214.269 37.2939 213.716 37.797 213.716 37.797C213.716 37.797 213.737 37.6965 213.774 37.5168C213.788 37.4524 213.803 37.376 213.82 37.292C213.824 37.2747 213.827 37.257 213.831 37.2388C214.076 36.0241 214.638 33.0818 214.766 31.0086C214.795 30.5204 214.806 29.989 214.804 29.4396C214.79 26.4735 214.38 22.9881 214.38 22.9881C214.38 22.9881 210.732 22.5875 206.617 20.1284C204.57 18.9082 203.957 16.624 203.957 16.624C203.957 16.624 202.907 17.1665 202.768 18.9267C202.756 19.0718 202.75 19.2115 202.75 19.3449C202.749 19.6116 202.769 19.8526 202.797 20.0609C202.805 20.113 202.812 20.1631 202.82 20.2108C202.837 20.3067 202.854 20.3937 202.872 20.4711C202.934 20.7428 202.997 20.8976 202.997 20.8976C202.997 20.8976 200.646 19.7669 198.423 17.5323C198.231 17.3397 198.047 17.1444 197.869 16.9477C195.653 14.4894 194.57 11.7784 194.226 10.7946C194.14 10.5494 194.101 10.4114 194.101 10.4114C194.101 10.4114 192.255 13.8786 193.929 17.9525C195.175 20.9841 197.777 22.8768 201.092 25.023C204.385 27.1543 209.091 28.8646 208.995 28.8525C208.995 28.8525 209.217 32.1426 208.995 36.5173C208.796 40.889 207.31 45.5202 203.808 49.68C200.3 53.838 194.153 58.4863 194.153 58.4863C194.153 58.4863 194.116 58.4601 194.048 58.4113C192.992 57.3729 185.273 49.7701 183.835 47.9234C182.715 46.4765 182.021 44.9587 183.286 43.6292C184.123 42.7412 185.396 42.3684 186.153 42.212C188.908 43.3181 190.765 44.6135 190.765 46.1263C190.765 47.6391 188.822 49.6803 188.822 49.6803C188.822 49.6803 191.924 50.8592 193.826 49.5844C195.498 48.4527 195.794 47.4341 195.839 47.211C195.799 47.8411 195.699 48.4642 195.316 49.415C194.902 50.3897 193.47 51.5279 193.47 51.5279C193.47 51.5279 197.549 50.8413 199.408 48.5552C200.86 46.7768 201.153 44.2052 201.153 44.2052C201.153 44.2052 199.844 45.0003 199.124 45.1125C196.975 45.4282 196.139 45.1188 194.054 42.2654C192.635 40.3333 192.102 37.4452 190.742 35.7051C189.992 34.7497 189.281 34.3315 188.905 34.1623C189.459 34.2786 190.572 34.6298 192.055 35.688C194.21 37.2333 195.124 40.0052 198.094 40.5419C198.728 40.6614 199.66 40.6609 200.029 40.6529C200.006 40.9022 199.808 41.3879 199.609 41.8373C199.122 42.9343 197.963 43.6077 197.963 43.6077C197.963 43.6077 198.027 43.5933 198.135 43.5603C198.491 43.5515 200.421 43.4603 201.579 42.501C202.513 41.6753 202.849 40.6782 202.849 40.6782C202.849 40.6782 203.017 42.0706 202.834 43.1881C202.597 44.6353 201.803 46.277 201.803 46.277C201.803 46.277 201.925 46.2619 202.146 46.1839C203.325 45.8175 207.166 44.2281 207.486 38.9944C207.799 34.0659 206.13 32.5892 206.13 32.5892C206.13 32.5892 205.354 34.2992 203.444 34.2171C200.58 34.097 196.902 31.3874 196.902 31.3874L199.925 29.4972H199.925C199.2 29.3148 198.25 29.0352 197.169 28.599C196.653 28.3888 196.086 28.1354 195.483 27.8312C193.651 26.8967 192.922 26.1831 191.25 25.2153C191.25 25.215 191.249 25.2148 191.249 25.2145C191.2 25.1858 191.148 25.1563 191.098 25.1271C191.914 23.6926 192.73 22.258 193.547 20.8235C191.91 18.2125 190.091 16.5678 188.866 15.6203C188.251 15.1445 186.378 13.7808 183.573 12.7895C181.186 11.9457 179.784 11.9941 177.734 10.9395C175.903 9.99647 174.886 8.65835 174.135 7.81641C174.124 8.40819 174.189 9.36612 174.685 10.3634C174.985 10.9657 175.547 11.7928 177.223 12.8664C178.983 13.9938 179.588 13.8656 182.298 15.069C184.053 15.8484 185.215 16.3744 186.477 17.4218C187.677 18.4181 188.466 19.4694 188.95 20.2157C188.329 21.2571 187.708 22.2983 187.087 23.3397C186.653 23.1931 186.196 23.0515 185.714 22.9184C185.856 21.5101 185.999 20.102 186.141 18.6936C185.079 18.6792 183.689 18.6269 182.068 18.4737C178.523 18.1393 175.894 17.4767 175.196 17.345C173.024 16.9345 169.939 16.0801 166.237 14.0957C168.287 16.6201 170.379 17.8544 171.69 18.474C173.38 19.2721 174.907 19.5837 177.715 20.1568C179.752 20.5728 181.456 20.807 182.629 20.9431C182.491 21.5191 182.354 22.0955 182.216 22.6716C181.694 22.6763 181.124 22.7239 180.42 22.833C179.553 22.9341 178.609 23.1022 177.607 23.3771C177.353 23.4468 177.106 23.5218 176.863 23.5995C175.701 23.943 174.612 24.437 173.664 24.953C172.474 25.5894 171.497 26.271 170.735 26.8733C170.393 27.1402 170.202 27.308 170.202 27.308C170.202 27.308 170.247 27.2962 170.328 27.2755C170.751 27.1689 172.168 26.8325 173.461 26.7537C173.511 26.7507 173.561 26.7479 173.61 26.7457C174.939 26.6865 175.148 26.8008 175.148 26.8008C175.148 26.8008 171.823 27.7486 170.029 30.1306C169.877 30.3336 169.732 30.5361 169.596 30.7372C168.097 32.952 167.552 35.0271 167.368 35.9762C167.36 36.0195 167.353 36.0602 167.345 36.0985C167.332 36.1754 167.321 36.2423 167.312 36.2991C167.29 36.441 167.282 36.5176 167.282 36.5176L169.447 35.8952C169.049 36.8107 168.626 38.1681 168.509 39.3236C168.196 42.5541 168.799 43.5782 168.8 43.5782C168.8 43.5782 169.266 41.2403 170.717 39.7021L170.817 39.5977L170.867 39.5454C170.899 39.8652 170.941 40.1989 170.995 40.5454C171.022 40.7187 171.052 40.8953 171.086 41.075C171.152 41.4342 171.231 41.8061 171.326 42.1894C171.467 42.7643 171.641 43.3655 171.855 43.9895C171.879 44.0598 171.907 44.1336 171.937 44.2096C171.944 44.227 171.951 44.2446 171.958 44.2623C171.987 44.3358 172.019 44.4119 172.053 44.4904C173.274 47.2978 177.396 53.1586 177.396 53.1586L177.607 50.7052L177.607 50.7057C177.607 50.7057 177.931 51.1559 178.303 51.5865C180.128 53.7024 183.416 56.3467 183.416 56.3467C185.766 58.2361 187.017 59.1249 188.075 60.0732C188.584 60.5302 190.022 61.8634 190.371 62.1962C190.381 62.2053 190.39 62.2144 190.4 62.2235C190.662 62.4731 190.915 62.7174 191.159 62.9535C191.165 62.9596 191.171 62.9657 191.178 62.9717C192.929 64.6713 194.152 65.9582 194.152 65.9582C195.088 65.0771 195.843 64.3545 196.364 63.8531C197.062 63.1806 197.372 62.8737 198.103 62.1772C198.694 61.6132 199.14 61.1953 199.754 60.6211C201.063 59.3962 201.718 58.7838 202.636 57.9306C206.376 54.4567 208.246 52.7197 210.165 50.449C210.165 50.449 212.154 48.0044 213.833 45.2874C214.408 44.357 214.873 43.3795 215.248 42.4051C215.279 42.3238 215.31 42.2428 215.34 42.1615C215.43 41.9183 215.515 41.6753 215.595 41.4337C215.621 41.3532 215.647 41.2728 215.673 41.1923C215.724 41.0317 215.772 40.8719 215.819 40.7132C215.912 40.3953 215.996 40.0812 216.073 39.7724C216.169 39.3864 216.252 39.0092 216.325 38.6442C216.325 38.6442 216.347 38.5354 216.368 38.4265C216.463 37.9293 216.644 36.2693 216.829 34.0204V34.021ZM193.569 31.3403C193.297 31.2742 192.257 30.9651 191.511 29.9534C191.03 29.3013 190.624 28.1004 190.624 28.1001C190.624 28.1001 192.644 29.2583 193.557 29.6129C194.953 30.16 195.733 30.222 195.733 30.222C195.733 30.222 194.725 31.4596 193.569 31.3403Z" fill="#111111"/>
<path d="M198.573 61.8458C205.414 55.5153 207.4 53.8441 210.165 50.4507C211.83 48.4064 212.684 47.1477 213.833 45.2891C216.899 40.3273 216.828 34.0224 216.828 34.0224C216.828 34.0224 215.842 35.617 215.042 36.5017C214.553 37.0364 213.715 37.7987 213.715 37.7987C213.715 37.7987 214.6 33.6819 214.765 31.01C214.955 27.8853 214.379 22.9896 214.379 22.9896C214.379 22.9896 210.731 22.589 206.616 20.1298C204.569 18.9096 203.957 16.6254 203.957 16.6254C203.957 16.6254 202.907 17.1679 202.767 18.9281C202.67 20.0899 202.996 20.8993 202.996 20.8993C202.996 20.8993 200.645 19.7686 198.422 17.534C195.232 14.3371 194.1 10.4136 194.1 10.4131C194.1 10.4139 194.269 14.6531 196.397 17.6936C199.553 22.1945 206.188 24.7131 206.188 24.7131C206.188 24.7131 205.162 23.502 204.892 22.7507C204.537 21.7341 204.538 20.4701 204.538 20.4701C204.538 20.4701 206.8 22.487 208.272 23.2328C209.76 23.9888 212.892 24.312 212.892 24.312C212.892 24.312 213.575 30.6263 212.655 35.2583C212.019 38.5385 210.677 42.6889 210.677 42.6889C210.677 42.6889 211.288 42.3291 212.655 41.3596C213.699 40.6204 214.879 39.6107 214.879 39.6107C214.879 39.6107 212.876 45.2539 207.409 50.6763C203.879 54.1681 199.633 57.6449 197.473 59.9771C196.029 61.5295 194.525 63.484 194.525 63.484L194.152 65.9599C195.019 65.1485 196.592 63.6793 198.573 61.8458H198.573Z" fill="#0E6EFF"/>
<path fill-rule="evenodd" clip-rule="evenodd" d="M193.638 31.3578C193.638 31.3578 192.245 31.5608 190.992 30.7902C189.983 30.1704 189.833 29.6361 189.455 28.7132C189.145 27.9616 188.401 27.207 188.401 27.207L190.625 28.1024C190.625 28.1024 191.03 29.3036 191.511 29.9557C192.376 31.1283 193.638 31.358 193.638 31.358L193.638 31.3578Z" fill="#0E6EFF"/>
<path d="M179.611 42.5764C177.969 45.0138 181.881 48.4554 184.542 50.9104C187.899 53.9985 194.169 58.5327 194.169 58.5327C194.169 58.5327 185.379 49.9089 183.834 47.9258C182.714 46.4789 182.02 44.9611 183.285 43.6316C184.122 42.7436 185.396 42.3708 186.153 42.2144C188.907 43.3205 190.764 44.6159 190.764 46.1287C190.764 47.6415 188.822 49.6827 188.822 49.6827C188.822 49.6827 193.284 47.4038 191.04 43.8498C189.423 41.2793 184.618 39.8646 183.004 39.3042C181.39 38.7416 179.116 38.4259 179.116 38.4259C179.116 38.4259 179.505 37.8815 180.901 36.906C183.004 35.432 185.483 35.3662 185.483 35.3662C185.483 35.3662 181.598 35.0022 178.941 36.5552C176.281 38.111 175.544 39.9624 175.544 39.9624C175.544 39.9624 179.118 40.3451 182.499 41.1201C181.758 41.2355 180.277 41.5862 179.612 42.5764H179.611Z" fill="#0E6EFF"/>
<path fill-rule="evenodd" clip-rule="evenodd" d="M206.128 32.5918C206.128 32.5918 206.652 34.8518 205.566 36.2852C204.444 37.7828 205.566 39.1954 205.566 41.3134C205.566 43.4315 201.802 46.2797 201.802 46.2797C201.802 46.2797 207.106 45.187 207.484 38.997C207.798 34.0685 206.128 32.5918 206.128 32.5918Z" fill="#0E6EFF"/>
<path d="M192.056 35.6883C189.892 34.1446 188.516 34.1052 188.516 34.1052C188.516 34.1052 189.335 33.4559 190.83 33.9402C192.375 34.4416 193.684 35.8709 195.514 37.5587C198.456 40.2688 201.542 39.2968 201.542 39.2968C201.542 39.2968 200.996 41.6293 199.956 42.5511C199.033 43.3691 197.964 43.6082 197.964 43.6082C197.964 43.6082 199.123 42.9351 199.61 41.8378C199.808 41.3887 200.007 40.903 200.03 40.6534C199.661 40.6614 198.729 40.6617 198.095 40.5424C195.125 40.0057 194.211 37.2336 192.056 35.6886V35.6883Z" fill="#0E6EFF"/>
<path d="M196.077 29.1857C198.672 30.1467 199.92 29.5009 199.923 29.4995C199.923 29.4995 199.923 29.4995 199.922 29.4995C199.917 29.4984 198.809 29.2717 197.166 28.6011C196.821 28.4603 196.209 28.2077 195.48 27.8333C193.697 26.9178 193.272 26.3521 191.168 25.1705C191.14 25.1548 191.125 25.1457 191.095 25.1289L190.286 26.507C193.558 28.119 193.618 28.2785 196.076 29.1857H196.077Z" fill="#0E6EFF"/>
<path d="M189.467 58.522C185.702 55.1192 183.622 53.8453 180.285 50.456C178.763 48.9107 177.625 47.5798 176.961 46.7772L176.506 49.659C176.506 49.659 174.531 47.2569 173.487 43.4384C172.437 39.6194 173.154 35.8069 173.154 35.8069C173.154 35.8069 172.011 36.6654 171.336 37.5131C170.569 38.4774 169.877 39.1959 169.877 39.1959C169.877 39.1959 169.88 38.0614 170.712 36.2436C171.181 35.2242 172.979 33.242 172.979 33.242C172.979 33.242 171.842 33.2381 171.336 33.361C170.172 33.6511 169.332 33.9354 169.332 33.9354C169.332 33.9354 170.594 31.6691 172.979 29.9026C175.648 27.9264 180.025 26.785 180.025 26.785C180.025 26.785 179.226 26.3828 178.428 26.1257C177.641 25.8723 176.537 25.729 176.537 25.729C176.537 25.729 177.688 24.8744 181.909 24.3801C183.488 24.1953 184.873 24.3733 186.243 24.7865L187.087 23.3407C186.648 23.1955 186.208 23.0241 185.714 22.9194C185.856 21.511 185.999 20.1029 186.141 18.6946C185.079 18.6802 183.689 18.6279 182.068 18.4747C178.523 18.1403 175.894 17.4777 175.196 17.346C173.024 16.9355 169.939 16.0811 166.237 14.0967C168.287 16.6211 170.379 17.8554 171.69 18.475C173.38 19.2731 174.907 19.5847 177.715 20.1578C179.752 20.5738 181.456 20.808 182.629 20.9441C182.491 21.5201 182.354 22.0965 182.216 22.6726C181.498 22.6916 179.758 22.7792 177.607 23.3781C175.6 23.9371 174.074 24.7061 173.136 25.2455C171.901 25.9566 170.921 26.7002 170.202 27.309C170.202 27.309 172.032 26.8186 173.61 26.7467C174.939 26.6875 175.148 26.8018 175.148 26.8018C175.148 26.8018 171.823 27.7496 170.029 30.1316C167.588 33.3784 167.283 36.5188 167.283 36.5188L169.447 35.8965C169.049 36.812 168.626 38.1694 168.509 39.3248C168.196 42.5557 168.8 43.5795 168.8 43.5795C168.8 43.5795 169.266 41.2415 170.717 39.7034L170.867 39.5466C170.995 40.8261 171.285 42.3267 171.856 43.9908C172.728 46.5221 177.397 53.1598 177.397 53.1598L177.607 50.7065C178.413 51.6611 179.623 53.0403 181.187 54.6131C182.178 55.6093 183.061 56.4325 187.04 59.8684C187.04 59.8684 189.766 62.2225 194.152 65.9597C194.276 65.1343 194.401 64.3092 194.525 63.4838C192.431 61.2588 190.642 59.5829 189.467 58.5217V58.522Z" fill="#0E6EFF"/>
</g>
<path d="M516.724 44.0555C516.995 44.1403 517.267 44.1997 517.538 44.2337C517.81 44.2507 518.082 44.2592 518.353 44.2592C519.032 44.2592 519.686 44.1658 520.314 43.9791C520.942 43.7924 521.527 43.5293 522.07 43.1898C522.631 42.8334 523.123 42.409 523.547 41.9168C523.988 41.4076 524.345 40.8475 524.616 40.2364L529.709 45.354C529.064 46.2705 528.317 47.0938 527.468 47.8236C526.636 48.5535 525.728 49.173 524.744 49.6822C523.776 50.1915 522.749 50.5734 521.663 50.828C520.594 51.0995 519.49 51.2353 518.353 51.2353C516.435 51.2353 514.627 50.8789 512.93 50.166C511.25 49.4531 509.773 48.4601 508.5 47.1871C507.244 45.9141 506.251 44.4034 505.521 42.6551C504.791 40.8899 504.426 38.9549 504.426 36.8502C504.426 34.6945 504.791 32.7256 505.521 30.9433C506.251 29.1611 507.244 27.6419 508.5 26.3859C509.773 25.1298 511.25 24.1539 512.93 23.4579C514.627 22.762 516.435 22.4141 518.353 22.4141C519.49 22.4141 520.602 22.5499 521.688 22.8214C522.775 23.093 523.802 23.4834 524.769 23.9926C525.754 24.5018 526.67 25.1298 527.519 25.8767C528.368 26.6066 529.114 27.4298 529.759 28.3464L516.724 44.0555ZM520.288 29.7212C519.966 29.6024 519.643 29.526 519.321 29.4921C519.015 29.4581 518.693 29.4412 518.353 29.4412C517.403 29.4412 516.503 29.6194 515.654 29.9758C514.823 30.3153 514.093 30.8075 513.465 31.4525C512.854 32.0975 512.37 32.8783 512.014 33.7949C511.657 34.6945 511.479 35.7129 511.479 36.8502C511.479 37.1048 511.487 37.3933 511.504 37.7158C511.538 38.0383 511.581 38.3693 511.632 38.7088C511.699 39.0313 511.776 39.3453 511.861 39.6508C511.946 39.9563 512.056 40.2279 512.192 40.4655L520.288 29.7212Z" fill="#111111"/>
<path d="M500.556 50.7257H493.554V12.6113H500.556V50.7257Z" fill="#111111"/>
<path d="M488.234 50.7261H486.554L483.855 46.9834C483.193 47.5775 482.489 48.1376 481.742 48.6638C481.012 49.173 480.24 49.6228 479.425 50.0132C478.61 50.3866 477.77 50.6837 476.904 50.9043C476.056 51.125 475.19 51.2353 474.307 51.2353C472.389 51.2353 470.582 50.9128 468.884 50.2678C467.204 49.6228 465.727 48.6893 464.454 47.4672C463.198 46.2281 462.205 44.7174 461.475 42.9352C460.745 41.153 460.38 39.1246 460.38 36.8502C460.38 34.7284 460.745 32.785 461.475 31.0197C462.205 29.2375 463.198 27.7098 464.454 26.4368C465.727 25.1638 467.204 24.1793 468.884 23.4834C470.582 22.7705 472.389 22.4141 474.307 22.4141C475.19 22.4141 476.064 22.5244 476.93 22.745C477.795 22.9657 478.636 23.2712 479.45 23.6616C480.265 24.052 481.037 24.5103 481.767 25.0365C482.514 25.5627 483.21 26.1313 483.855 26.7423L486.554 23.5089H488.234V50.7261ZM481.233 36.8502C481.233 35.8996 481.046 34.9831 480.672 34.1004C480.316 33.2008 479.824 32.4115 479.196 31.7326C478.568 31.0367 477.829 30.485 476.981 30.0777C476.149 29.6533 475.258 29.4412 474.307 29.4412C473.357 29.4412 472.457 29.6024 471.608 29.9249C470.777 30.2474 470.047 30.7227 469.419 31.3507C468.808 31.9787 468.324 32.7595 467.968 33.6931C467.611 34.6096 467.433 35.662 467.433 36.8502C467.433 38.0383 467.611 39.0992 467.968 40.0327C468.324 40.9493 468.808 41.7216 469.419 42.3496C470.047 42.9776 470.777 43.4529 471.608 43.7754C472.457 44.0979 473.357 44.2592 474.307 44.2592C475.258 44.2592 476.149 44.0555 476.981 43.6481C477.829 43.2238 478.568 42.6721 479.196 41.9932C479.824 41.2973 480.316 40.508 480.672 39.6254C481.046 38.7257 481.233 37.8007 481.233 36.8502Z" fill="#111111"/>
<path d="M458.826 28.881L453.734 33.9986C453.48 33.2857 453.132 32.6492 452.69 32.089C452.249 31.5119 451.748 31.0282 451.188 30.6378C450.645 30.2474 450.051 29.9504 449.406 29.7467C448.761 29.543 448.099 29.4412 447.42 29.4412C446.47 29.4412 445.57 29.6364 444.721 30.0267C443.89 30.4171 443.16 30.9688 442.532 31.6817C441.921 32.3776 441.437 33.2093 441.08 34.1768C440.724 35.1443 440.546 36.2136 440.546 37.3848C440.546 38.3354 440.724 39.2265 441.08 40.0582C441.437 40.8899 441.921 41.6198 442.532 42.2478C443.16 42.8758 443.89 43.368 444.721 43.7245C445.57 44.0809 446.47 44.2592 447.42 44.2592C448.099 44.2592 448.752 44.1658 449.381 43.9791C450.009 43.7924 450.594 43.5293 451.137 43.1898C451.697 42.8334 452.19 42.409 452.614 41.9168C453.055 41.4076 453.412 40.8475 453.683 40.2364L458.775 45.354C458.13 46.2705 457.384 47.0938 456.535 47.8236C455.703 48.5535 454.795 49.173 453.811 49.6822C452.843 50.1915 451.816 50.5734 450.73 50.828C449.661 51.0995 448.557 51.2353 447.42 51.2353C445.502 51.2353 443.694 50.8789 441.997 50.166C440.317 49.4361 438.84 48.4432 437.567 47.1871C436.311 45.9311 435.318 44.4628 434.588 42.7825C433.858 41.1021 433.493 39.3028 433.493 37.3848C433.493 35.2971 433.858 33.3451 434.588 31.5289C435.318 29.7127 436.311 28.1342 437.567 26.7933C438.84 25.4354 440.317 24.366 441.997 23.5852C443.694 22.8045 445.502 22.4141 447.42 22.4141C448.557 22.4141 449.669 22.5583 450.755 22.8469C451.859 23.1354 452.903 23.5598 453.887 24.1199C454.888 24.6631 455.805 25.3335 456.637 26.1313C457.485 26.9291 458.215 27.8456 458.826 28.881Z" fill="#111111"/>
<path d="M422.621 50.726H406.734V43.8008H422.621C423.096 43.8008 423.504 43.6311 423.843 43.2916C424.183 42.9521 424.353 42.5447 424.353 42.0695C424.353 41.5772 424.183 41.2547 423.843 41.102C423.504 40.9492 423.096 40.8728 422.621 40.8728H415.39C414.185 40.8728 413.057 40.6437 412.004 40.1854C410.952 39.7271 410.035 39.1076 409.254 38.3268C408.474 37.529 407.854 36.604 407.396 35.5516C406.955 34.4992 406.734 33.3705 406.734 32.1654C406.734 30.9602 406.955 29.8315 407.396 28.7791C407.854 27.7267 408.474 26.8102 409.254 26.0294C410.035 25.2486 410.952 24.6375 412.004 24.1962C413.057 23.7379 414.185 23.5088 415.39 23.5088H429.47V30.434H415.39C414.915 30.434 414.508 30.6038 414.168 30.9432C413.829 31.2827 413.659 31.6901 413.659 32.1654C413.659 32.6576 413.829 33.0819 414.168 33.4384C414.508 33.7778 414.915 33.9476 415.39 33.9476H422.621C423.809 33.9476 424.93 34.1513 425.982 34.5586C427.034 34.949 427.951 35.5007 428.732 36.2136C429.513 36.9265 430.132 37.7836 430.59 38.7851C431.049 39.7865 431.278 40.8813 431.278 42.0695C431.278 43.2746 431.049 44.4034 430.59 45.4557C430.132 46.4911 429.513 47.4077 428.732 48.2055C427.951 48.9862 427.034 49.6058 425.982 50.0641C424.93 50.5054 423.809 50.726 422.621 50.726Z" fill="#111111"/>
<path d="M385.272 50.7257H378.321V23.4575H380.001L382.293 26.1054C383.413 25.087 384.677 24.3062 386.086 23.763C387.512 23.2029 388.997 22.9229 390.542 22.9229C392.205 22.9229 393.775 23.2454 395.252 23.8903C396.729 24.5184 398.019 25.3925 399.122 26.5128C400.225 27.6161 401.091 28.9146 401.719 30.4082C402.364 31.8849 402.686 33.4635 402.686 35.1439V50.7257H395.736V35.1439C395.736 34.431 395.6 33.7605 395.328 33.1325C395.057 32.4875 394.683 31.9274 394.208 31.4521C393.733 30.9769 393.181 30.6034 392.553 30.3319C391.925 30.0603 391.255 29.9245 390.542 29.9245C389.812 29.9245 389.125 30.0603 388.48 30.3319C387.835 30.6034 387.274 30.9769 386.799 31.4521C386.324 31.9274 385.95 32.4875 385.679 33.1325C385.407 33.7605 385.272 34.431 385.272 35.1439V50.7257Z" fill="#111111"/>
<path d="M374.475 36.8502C374.475 38.887 374.11 40.788 373.381 42.5533C372.651 44.3016 371.658 45.8207 370.402 47.1107C369.146 48.3838 367.669 49.3937 365.972 50.1405C364.291 50.8704 362.483 51.2353 360.548 51.2353C358.63 51.2353 356.823 50.8704 355.125 50.1405C353.445 49.3937 351.968 48.3838 350.695 47.1107C349.439 45.8207 348.446 44.3016 347.716 42.5533C346.987 40.788 346.622 38.887 346.622 36.8502C346.622 34.7794 346.987 32.8613 347.716 31.0961C348.446 29.3308 349.439 27.8117 350.695 26.5387C351.968 25.2487 353.445 24.2387 355.125 23.5089C356.823 22.779 358.63 22.4141 360.548 22.4141C362.483 22.4141 364.291 22.762 365.972 23.4579C367.669 24.1369 369.146 25.1129 370.402 26.3859C371.658 27.6419 372.651 29.1611 373.381 30.9433C374.11 32.7086 374.475 34.6775 374.475 36.8502ZM367.474 36.8502C367.474 35.7299 367.287 34.72 366.914 33.8204C366.557 32.9038 366.065 32.123 365.437 31.478C364.809 30.816 364.071 30.3153 363.222 29.9758C362.39 29.6194 361.499 29.4412 360.548 29.4412C359.598 29.4412 358.698 29.6194 357.85 29.9758C357.018 30.3153 356.288 30.816 355.66 31.478C355.049 32.123 354.565 32.9038 354.209 33.8204C353.852 34.72 353.674 35.7299 353.674 36.8502C353.674 37.9025 353.852 38.8785 354.209 39.7781C354.565 40.6777 355.049 41.4585 355.66 42.1205C356.288 42.7825 357.018 43.3086 357.85 43.699C358.698 44.0724 359.598 44.2592 360.548 44.2592C361.499 44.2592 362.39 44.0809 363.222 43.7245C364.071 43.368 364.809 42.8673 365.437 42.2223C366.065 41.5773 366.557 40.7965 366.914 39.88C367.287 38.9634 367.474 37.9534 367.474 36.8502Z" fill="#111111"/>
<path d="M335.8 36.8502C335.8 35.8996 335.613 34.9831 335.24 34.1004C334.883 33.2008 334.391 32.4115 333.763 31.7326C333.135 31.0367 332.397 30.485 331.548 30.0777C330.716 29.6533 329.825 29.4412 328.875 29.4412C327.924 29.4412 327.025 29.6024 326.176 29.9249C325.344 30.2474 324.614 30.7227 323.986 31.3507C323.375 31.9787 322.891 32.7595 322.535 33.6931C322.179 34.6096 322 35.662 322 36.8502C322 37.9874 322.179 39.0143 322.535 39.9309C322.891 40.8305 323.375 41.6028 323.986 42.2478C324.614 42.8928 325.344 43.3935 326.176 43.7499C327.025 44.0894 327.924 44.2592 328.875 44.2592C329.825 44.2592 330.716 44.0555 331.548 43.6481C332.397 43.2238 333.135 42.6721 333.763 41.9932C334.391 41.2973 334.883 40.508 335.24 39.6253C335.613 38.7257 335.8 37.8007 335.8 36.8502ZM342.802 47.289C342.802 49.207 342.437 51.0062 341.707 52.6866C340.977 54.367 339.975 55.8352 338.702 57.0912C337.446 58.3473 335.97 59.3403 334.272 60.0701C332.592 60.8 330.793 61.1649 328.875 61.1649L325.387 61.114V54.1633L328.824 54.2142C329.91 54.2142 330.835 54.0699 331.599 53.7814C332.363 53.5098 333.008 53.1279 333.534 52.6357C334.06 52.1604 334.476 51.6087 334.781 50.9807C335.104 50.3527 335.359 49.6907 335.545 48.9948C335.274 49.4361 334.883 49.8011 334.374 50.0896C333.865 50.3612 333.296 50.5818 332.668 50.7516C332.057 50.9383 331.412 51.0656 330.733 51.1335C330.071 51.2014 329.452 51.2353 328.875 51.2353C326.957 51.2353 325.149 50.9043 323.452 50.2424C321.771 49.5804 320.294 48.6384 319.021 47.4163C317.765 46.1772 316.772 44.6665 316.043 42.8843C315.313 41.1021 314.948 39.0907 314.948 36.8502C314.948 34.7963 315.313 32.8868 316.043 31.1215C316.772 29.3563 317.765 27.8287 319.021 26.5387C320.294 25.2487 321.771 24.2387 323.452 23.5089C325.149 22.779 326.957 22.4141 328.875 22.4141C329.757 22.4141 330.631 22.5244 331.497 22.745C332.363 22.9657 333.203 23.2712 334.018 23.6616C334.832 24.052 335.605 24.5103 336.335 25.0365C337.081 25.5627 337.777 26.1313 338.422 26.7423L341.121 23.5089H342.802V47.289Z" fill="#111111"/>
<path d="M311.08 50.7261H309.4L306.701 46.9834C306.039 47.5775 305.335 48.1376 304.588 48.6638C303.858 49.173 303.086 49.6228 302.271 50.0132C301.456 50.3866 300.616 50.6837 299.75 50.9043C298.902 51.125 298.036 51.2353 297.153 51.2353C295.235 51.2353 293.428 50.9128 291.73 50.2678C290.05 49.6228 288.573 48.6893 287.3 47.4672C286.044 46.2281 285.051 44.7174 284.321 42.9352C283.591 41.153 283.227 39.1246 283.227 36.8502C283.227 34.7284 283.591 32.785 284.321 31.0197C285.051 29.2375 286.044 27.7098 287.3 26.4368C288.573 25.1638 290.05 24.1793 291.73 23.4834C293.428 22.7705 295.235 22.4141 297.153 22.4141C298.036 22.4141 298.91 22.5244 299.776 22.745C300.642 22.9657 301.482 23.2712 302.296 23.6616C303.111 24.052 303.883 24.5103 304.613 25.0365C305.36 25.5627 306.056 26.1313 306.701 26.7423L309.4 23.5089H311.08V50.7261ZM304.079 36.8502C304.079 35.8996 303.892 34.9831 303.519 34.1004C303.162 33.2008 302.67 32.4115 302.042 31.7326C301.414 31.0367 300.675 30.485 299.827 30.0777C298.995 29.6533 298.104 29.4412 297.153 29.4412C296.203 29.4412 295.303 29.6024 294.455 29.9249C293.623 30.2474 292.893 30.7227 292.265 31.3507C291.654 31.9787 291.17 32.7595 290.814 33.6931C290.457 34.6096 290.279 35.662 290.279 36.8502C290.279 38.0383 290.457 39.0992 290.814 40.0327C291.17 40.9493 291.654 41.7216 292.265 42.3496C292.893 42.9776 293.623 43.4529 294.455 43.7754C295.303 44.0979 296.203 44.2592 297.153 44.2592C298.104 44.2592 298.995 44.0555 299.827 43.6481C300.675 43.2238 301.414 42.6721 302.042 41.9932C302.67 41.2973 303.162 40.508 303.519 39.6254C303.892 38.7257 304.079 37.8007 304.079 36.8502Z" fill="#111111"/>
<path d="M270.546 50.7262H263.595V23.458H265.276L267.567 26.6915C268.687 25.6731 269.96 24.8923 271.386 24.3491C272.812 23.789 274.289 23.5089 275.816 23.5089H281.952V30.4342H275.816C275.086 30.4342 274.399 30.57 273.754 30.8415C273.109 31.1131 272.549 31.4865 272.074 31.9618C271.598 32.4371 271.225 32.9972 270.953 33.6422C270.682 34.2872 270.546 34.9746 270.546 35.7045V50.7262Z" fill="#111111"/>
<path d="M258.274 50.7257H256.594L253.895 46.983C253.233 47.5771 252.529 48.1372 251.782 48.6634C251.052 49.1726 250.28 49.6224 249.465 50.0128C248.65 50.3862 247.81 50.6832 246.944 50.9039C246.096 51.1246 245.23 51.2349 244.347 51.2349C242.429 51.2349 240.622 50.8784 238.924 50.1655C237.244 49.4357 235.767 48.4342 234.494 47.1612C233.238 45.8712 232.245 44.3521 231.515 42.6038C230.785 40.8385 230.42 38.9205 230.42 36.8497C230.42 34.7959 230.785 32.8864 231.515 31.1211C232.245 29.3558 233.238 27.8282 234.494 26.5382C235.767 25.2482 237.244 24.2383 238.924 23.5084C240.622 22.7785 242.429 22.4136 244.347 22.4136C244.958 22.4136 245.586 22.4645 246.231 22.5664C246.893 22.6682 247.53 22.838 248.141 23.0756C248.769 23.2962 249.355 23.5933 249.898 23.9667C250.441 24.3401 250.899 24.7984 251.273 25.3416V12.6113H258.274V50.7257ZM251.273 36.8497C251.273 35.8992 251.086 34.9826 250.712 34.1C250.356 33.2004 249.864 32.4111 249.236 31.7322C248.608 31.0362 247.869 30.4846 247.021 30.0772C246.189 29.6529 245.298 29.4407 244.347 29.4407C243.397 29.4407 242.497 29.6104 241.648 29.9499C240.817 30.2894 240.087 30.7816 239.459 31.4266C238.848 32.0547 238.364 32.827 238.008 33.7435C237.651 34.6601 237.473 35.6955 237.473 36.8497C237.473 37.8512 237.651 38.8017 238.008 39.7013C238.364 40.6009 238.848 41.3902 239.459 42.0691C240.087 42.7481 240.817 43.2827 241.648 43.6731C242.497 44.0635 243.397 44.2587 244.347 44.2587C245.298 44.2587 246.189 44.055 247.021 43.6477C247.869 43.2233 248.608 42.6717 249.236 41.9927C249.864 41.2968 250.356 40.5075 250.712 39.6249C251.086 38.7253 251.273 37.8002 251.273 36.8497Z" fill="#111111"/>
</g>
<path d="M2.36393 50.3877V22.6949H13.4519C15.4892 22.6949 17.1884 22.9969 18.5496 23.6008C19.9108 24.2048 20.934 25.0432 21.6191 26.1159C22.3042 27.1796 22.6468 28.4056 22.6468 29.7939C22.6468 30.8756 22.4304 31.8267 21.9977 32.647C21.565 33.4583 20.97 34.1254 20.2128 34.6482C19.4646 35.1621 18.6082 35.5271 17.6437 35.7435V36.0139C18.6984 36.059 19.6855 36.3565 20.6049 36.9064C21.5334 37.4563 22.2862 38.227 22.8631 39.2186C23.44 40.2012 23.7285 41.3731 23.7285 42.7343C23.7285 44.2037 23.3634 45.5153 22.6332 46.6692C21.9121 47.814 20.8438 48.72 19.4285 49.3871C18.0133 50.0542 16.2689 50.3877 14.1956 50.3877H2.36393ZM8.2189 45.6009H12.9921C14.6238 45.6009 15.8137 45.2899 16.5619 44.6679C17.3101 44.0369 17.6842 43.1986 17.6842 42.1529C17.6842 41.3866 17.4994 40.7105 17.1298 40.1246C16.7602 39.5386 16.2329 39.0789 15.5478 38.7454C14.8717 38.4118 14.0649 38.245 13.1273 38.245H8.2189V45.6009ZM8.2189 34.2831H12.5594C13.3617 34.2831 14.0739 34.1434 14.6959 33.864C15.3269 33.5755 15.8227 33.1698 16.1833 32.647C16.5529 32.1241 16.7377 31.4976 16.7377 30.7674C16.7377 29.7668 16.3816 28.96 15.6695 28.347C14.9663 27.734 13.9657 27.4275 12.6676 27.4275H8.2189V34.2831ZM40.7492 41.5444V29.6181H46.5095V50.3877H40.979V46.6151H40.7627C40.2939 47.8321 39.5142 48.8101 38.4234 49.5493C37.3417 50.2885 36.021 50.6581 34.4615 50.6581C33.0732 50.6581 31.8518 50.3426 30.7971 49.7116C29.7424 49.0806 28.9175 48.1836 28.3226 47.0207C27.7366 45.8579 27.4391 44.4651 27.4301 42.8425V29.6181H33.1904V41.8148C33.1995 43.0408 33.5285 44.0099 34.1775 44.722C34.8266 45.4342 35.6965 45.7903 36.7873 45.7903C37.4814 45.7903 38.1304 45.6325 38.7344 45.317C39.3384 44.9925 39.8252 44.5147 40.1948 43.8837C40.5734 43.2526 40.7582 42.4729 40.7492 41.5444ZM51.1171 50.3877V29.6181H56.8774V50.3877H51.1171ZM54.0108 26.9408C53.1544 26.9408 52.4197 26.6568 51.8067 26.0889C51.2027 25.5119 50.9007 24.8223 50.9007 24.02C50.9007 23.2267 51.2027 22.5461 51.8067 21.9782C52.4197 21.4013 53.1544 21.1128 54.0108 21.1128C54.8671 21.1128 55.5973 21.4013 56.2013 21.9782C56.8143 22.5461 57.1208 23.2267 57.1208 24.02C57.1208 24.8223 56.8143 25.5119 56.2013 26.0889C55.5973 26.6568 54.8671 26.9408 54.0108 26.9408ZM67.2521 22.6949V50.3877H61.4917V22.6949H67.2521ZM82.9138 29.6181V33.9451H70.406V29.6181H82.9138ZM73.2456 24.642H79.006V44.0054C79.006 44.5372 79.0871 44.9519 79.2493 45.2494C79.4116 45.5378 79.637 45.7407 79.9254 45.8579C80.2229 45.9751 80.5655 46.0336 80.9531 46.0336C81.2235 46.0336 81.494 46.0111 81.7644 45.966C82.0349 45.912 82.2422 45.8714 82.3864 45.8443L83.2924 50.1308C83.0039 50.2209 82.5983 50.3246 82.0754 50.4418C81.5526 50.568 80.917 50.6446 80.1688 50.6717C78.7806 50.7257 77.5636 50.5409 76.5179 50.1173C75.4813 49.6936 74.6744 49.0355 74.0975 48.1431C73.5206 47.2506 73.2366 46.1238 73.2456 44.7626V24.642ZM95.5872 50.3877V22.6949H101.347V33.1067H101.523C101.776 32.5478 102.141 31.9799 102.619 31.403C103.105 30.817 103.736 30.3302 104.512 29.9426C105.296 29.546 106.269 29.3476 107.432 29.3476C108.947 29.3476 110.344 29.7443 111.624 30.5376C112.904 31.3218 113.927 32.5073 114.694 34.0938C115.46 35.6714 115.843 37.6501 115.843 40.0299C115.843 42.3467 115.469 44.3028 114.721 45.8984C113.981 47.485 112.972 48.6884 111.692 49.5088C110.421 50.3201 108.996 50.7257 107.419 50.7257C106.301 50.7257 105.35 50.5409 104.566 50.1713C103.79 49.8017 103.155 49.3375 102.659 48.7786C102.163 48.2107 101.785 47.6382 101.523 47.0613H101.266V50.3877H95.5872ZM101.226 40.0029C101.226 41.2379 101.397 42.3151 101.74 43.2346C102.082 44.1541 102.578 44.8708 103.227 45.3846C103.876 45.8894 104.665 46.1418 105.593 46.1418C106.531 46.1418 107.324 45.8849 107.973 45.3711C108.622 44.8482 109.114 44.1271 109.447 43.2076C109.79 42.2791 109.961 41.2108 109.961 40.0029C109.961 38.8039 109.794 37.7492 109.461 36.8388C109.127 35.9283 108.636 35.2161 107.987 34.7023C107.338 34.1885 106.54 33.9316 105.593 33.9316C104.656 33.9316 103.863 34.1795 103.214 34.6753C102.573 35.1711 102.082 35.8742 101.74 36.7847C101.397 37.6952 101.226 38.7679 101.226 40.0029ZM122.573 58.1763C121.843 58.1763 121.158 58.1177 120.518 58.0005C119.887 57.8923 119.364 57.7526 118.95 57.5813L120.248 53.2814C120.924 53.4887 121.532 53.6014 122.073 53.6194C122.623 53.6375 123.096 53.5113 123.493 53.2408C123.899 52.9704 124.228 52.5106 124.48 51.8616L124.818 50.9827L117.368 29.6181H123.425L127.725 44.8708H127.942L132.282 29.6181H138.381L130.308 52.6323C129.92 53.7501 129.393 54.7237 128.726 55.5531C128.068 56.3914 127.234 57.036 126.224 57.4867C125.215 57.9464 123.998 58.1763 122.573 58.1763Z" fill="#818A96"/>
</g>
<defs>
<clipPath id="clip0_10826_19644">
<rect width="532" height="74" fill="white"/>
</clipPath>
<clipPath id="clip1_10826_19644">
<rect width="364.117" height="83.2948" fill="white" transform="translate(166.237 -4.75977)"/>
</clipPath>
<clipPath id="clip2_10826_19644">
<rect width="50.5911" height="58.1421" fill="white" transform="translate(166.237 7.81641)"/>
</clipPath>
</defs>
</svg>
