<svg width="79" height="13" viewBox="0 0 79 13" fill="none" xmlns="http://www.w3.org/2000/svg">
<path d="M0.0113636 12V0.363636H4.60227C5.48106 0.363636 6.23106 0.520833 6.85227 0.835227C7.47727 1.14583 7.95265 1.58712 8.27841 2.15909C8.60795 2.72727 8.77273 3.39583 8.77273 4.16477C8.77273 4.9375 8.60606 5.60227 8.27273 6.15909C7.93939 6.71212 7.45644 7.13636 6.82386 7.43182C6.19508 7.72727 5.43371 7.875 4.53977 7.875H1.46591V5.89773H4.14205C4.61174 5.89773 5.00189 5.83333 5.3125 5.70455C5.62311 5.57576 5.85417 5.38258 6.00568 5.125C6.16098 4.86742 6.23864 4.54735 6.23864 4.16477C6.23864 3.77841 6.16098 3.45265 6.00568 3.1875C5.85417 2.92235 5.62121 2.72159 5.30682 2.58523C4.99621 2.44508 4.60417 2.375 4.13068 2.375H2.47159V12H0.0113636ZM6.29545 6.70455L9.1875 12H6.47159L3.64205 6.70455H6.29545ZM17.8489 0.363636H20.3091V7.92045C20.3091 8.76894 20.1064 9.51136 19.7011 10.1477C19.2996 10.7841 18.7371 11.2803 18.0136 11.6364C17.2902 11.9886 16.4473 12.1648 15.4852 12.1648C14.5193 12.1648 13.6746 11.9886 12.9511 11.6364C12.2277 11.2803 11.6652 10.7841 11.2636 10.1477C10.8621 9.51136 10.6614 8.76894 10.6614 7.92045V0.363636H13.1216V7.71023C13.1216 8.15341 13.2182 8.54735 13.4114 8.89205C13.6083 9.23674 13.8848 9.50758 14.2409 9.70455C14.597 9.90152 15.0117 10 15.4852 10C15.9625 10 16.3773 9.90152 16.7295 9.70455C17.0856 9.50758 17.3602 9.23674 17.5534 8.89205C17.7504 8.54735 17.8489 8.15341 17.8489 7.71023V0.363636ZM28.7957 3.71023C28.7503 3.25189 28.5552 2.89583 28.2105 2.64205C27.8658 2.38826 27.398 2.26136 26.8071 2.26136C26.4056 2.26136 26.0666 2.31818 25.7901 2.43182C25.5135 2.54167 25.3014 2.69508 25.1537 2.89205C25.0098 3.08902 24.9378 3.3125 24.9378 3.5625C24.9302 3.77083 24.9738 3.95265 25.0685 4.10795C25.167 4.26326 25.3014 4.39773 25.4719 4.51136C25.6423 4.62121 25.8393 4.7178 26.0628 4.80114C26.2863 4.88068 26.5249 4.94886 26.7787 5.00568L27.8241 5.25568C28.3317 5.36932 28.7976 5.52083 29.2219 5.71023C29.6461 5.89962 30.0135 6.13258 30.3241 6.40909C30.6348 6.68561 30.8753 7.01136 31.0457 7.38636C31.22 7.76136 31.309 8.19129 31.3128 8.67614C31.309 9.38826 31.1272 10.0057 30.7673 10.5284C30.4113 11.0473 29.8961 11.4508 29.2219 11.7386C28.5514 12.0227 27.7427 12.1648 26.7957 12.1648C25.8563 12.1648 25.0382 12.0208 24.3412 11.733C23.648 11.4451 23.1063 11.0189 22.7162 10.4545C22.3298 9.88636 22.1272 9.18371 22.1082 8.34659H24.4889C24.5154 8.73674 24.6272 9.0625 24.8241 9.32386C25.0249 9.58144 25.292 9.77652 25.6253 9.90909C25.9624 10.0379 26.3431 10.1023 26.7673 10.1023C27.184 10.1023 27.5457 10.0417 27.8526 9.92045C28.1632 9.79924 28.4037 9.63068 28.5741 9.41477C28.7446 9.19886 28.8298 8.95076 28.8298 8.67045C28.8298 8.40909 28.7522 8.18939 28.5969 8.01136C28.4454 7.83333 28.2219 7.68182 27.9264 7.55682C27.6348 7.43182 27.2768 7.31818 26.8526 7.21591L25.5855 6.89773C24.6045 6.65909 23.8298 6.28598 23.2616 5.77841C22.6935 5.27083 22.4113 4.58712 22.4151 3.72727C22.4113 3.02273 22.5988 2.4072 22.9776 1.88068C23.3601 1.35417 23.8848 0.943182 24.5514 0.647727C25.2181 0.352272 25.9757 0.204545 26.8241 0.204545C27.6878 0.204545 28.4416 0.352272 29.0855 0.647727C29.7332 0.943182 30.237 1.35417 30.5969 1.88068C30.9567 2.4072 31.1423 3.01705 31.1537 3.71023H28.7957ZM32.6744 2.39205V0.363636H42.2313V2.39205H38.6688V12H36.2369V2.39205H32.6744ZM46.4153 0.363636V12H43.9551V0.363636H46.4153ZM58.8565 4.4375H56.3679C56.3224 4.11553 56.2296 3.82955 56.0895 3.57955C55.9493 3.32576 55.7694 3.10985 55.5497 2.93182C55.33 2.75379 55.0762 2.61742 54.7884 2.52273C54.5043 2.42803 54.1955 2.38068 53.8622 2.38068C53.2599 2.38068 52.7353 2.5303 52.2884 2.82955C51.8414 3.125 51.4948 3.55682 51.2486 4.125C51.0024 4.68939 50.8793 5.375 50.8793 6.18182C50.8793 7.01136 51.0024 7.70833 51.2486 8.27273C51.4986 8.83712 51.8471 9.26326 52.294 9.55114C52.741 9.83902 53.258 9.98295 53.8452 9.98295C54.1747 9.98295 54.4796 9.93939 54.7599 9.85227C55.044 9.76515 55.2959 9.63826 55.5156 9.47159C55.7353 9.30114 55.9171 9.0947 56.0611 8.85227C56.2088 8.60985 56.3111 8.33333 56.3679 8.02273L58.8565 8.03409C58.7921 8.56818 58.6312 9.08333 58.3736 9.57955C58.1198 10.072 57.777 10.5133 57.3452 10.9034C56.9171 11.2898 56.4058 11.5966 55.8111 11.8239C55.2202 12.0473 54.5516 12.1591 53.8054 12.1591C52.7675 12.1591 51.8395 11.9242 51.0213 11.4545C50.2069 10.9848 49.563 10.3049 49.0895 9.41477C48.6198 8.52462 48.3849 7.44697 48.3849 6.18182C48.3849 4.91288 48.6236 3.83333 49.1009 2.94318C49.5781 2.05303 50.2259 1.375 51.044 0.909091C51.8622 0.439394 52.7827 0.204545 53.8054 0.204545C54.4796 0.204545 55.1046 0.299242 55.6804 0.488636C56.2599 0.67803 56.7732 0.954545 57.2202 1.31818C57.6671 1.67803 58.0308 2.11932 58.3111 2.64205C58.5952 3.16477 58.777 3.76326 58.8565 4.4375Z" fill="#FF6928"/>
<path d="M71.8114 0.363636H74.2716V7.92045C74.2716 8.76894 74.0689 9.51136 73.6636 10.1477C73.2621 10.7841 72.6996 11.2803 71.9761 11.6364C71.2527 11.9886 70.4099 12.1648 69.4477 12.1648C68.4818 12.1648 67.6371 11.9886 66.9136 11.6364C66.1902 11.2803 65.6277 10.7841 65.2261 10.1477C64.8246 9.51136 64.6239 8.76894 64.6239 7.92045V0.363636H67.0841V7.71023C67.0841 8.15341 67.1807 8.54735 67.3739 8.89205C67.5708 9.23674 67.8474 9.50758 68.2034 9.70455C68.5595 9.90152 68.9742 10 69.4477 10C69.925 10 70.3398 9.90152 70.692 9.70455C71.0481 9.50758 71.3227 9.23674 71.5159 8.89205C71.7129 8.54735 71.8114 8.15341 71.8114 7.71023V0.363636ZM78.906 0.363636V12H76.4457V0.363636H78.906Z" fill="#1E0C04"/>
</svg>
